<mxfile host="app.diagrams.net" modified="2021-05-09T19:18:03.472Z" agent="5.0 (Macintosh)" etag="8KfZlSWr4DWUrI46dJiG" version="14.6.6" type="github">
  <diagram id="3tlLVV6B7f3S8-h1EmOi" name="Page-1">
    <mxGraphModel dx="1298" dy="820" grid="1" gridSize="10" guides="1" tooltips="1" connect="1" arrows="1" fold="1" page="1" pageScale="1" pageWidth="850" pageHeight="1100" math="0" shadow="0">
      <root>
        <mxCell id="0" />
        <mxCell id="1" parent="0" />
        <mxCell id="QsKVNef-p0tS18L_qmss-8" value="" style="edgeStyle=orthogonalEdgeStyle;rounded=0;orthogonalLoop=1;jettySize=auto;html=1;" edge="1" parent="1" source="fPDpYAZ-1w6BcHP8GM9D-1" target="fPDpYAZ-1w6BcHP8GM9D-3">
          <mxGeometry relative="1" as="geometry" />
        </mxCell>
        <mxCell id="fPDpYAZ-1w6BcHP8GM9D-1" value="Release Branch" style="ellipse;whiteSpace=wrap;html=1;aspect=fixed;" parent="1" vertex="1">
          <mxGeometry x="360" y="10" width="80" height="80" as="geometry" />
        </mxCell>
        <mxCell id="QsKVNef-p0tS18L_qmss-11" value="" style="edgeStyle=orthogonalEdgeStyle;rounded=0;orthogonalLoop=1;jettySize=auto;html=1;" edge="1" parent="1" source="fPDpYAZ-1w6BcHP8GM9D-2" target="QsKVNef-p0tS18L_qmss-5">
          <mxGeometry relative="1" as="geometry" />
        </mxCell>
        <mxCell id="fPDpYAZ-1w6BcHP8GM9D-2" value="Master" style="ellipse;whiteSpace=wrap;html=1;aspect=fixed;" parent="1" vertex="1">
          <mxGeometry x="365" y="660" width="80" height="80" as="geometry" />
        </mxCell>
        <mxCell id="QsKVNef-p0tS18L_qmss-9" value="" style="edgeStyle=orthogonalEdgeStyle;rounded=0;orthogonalLoop=1;jettySize=auto;html=1;" edge="1" parent="1" source="fPDpYAZ-1w6BcHP8GM9D-3" target="QsKVNef-p0tS18L_qmss-6">
          <mxGeometry relative="1" as="geometry" />
        </mxCell>
        <mxCell id="fPDpYAZ-1w6BcHP8GM9D-3" value="Pull Request" style="shape=process;whiteSpace=wrap;html=1;backgroundOutline=1;" parent="1" vertex="1">
          <mxGeometry x="340" y="120" width="120" height="60" as="geometry" />
        </mxCell>
        <mxCell id="QsKVNef-p0tS18L_qmss-17" value="" style="edgeStyle=orthogonalEdgeStyle;rounded=0;orthogonalLoop=1;jettySize=auto;html=1;" edge="1" parent="1" source="fPDpYAZ-1w6BcHP8GM9D-4" target="QsKVNef-p0tS18L_qmss-14">
          <mxGeometry relative="1" as="geometry">
            <Array as="points">
              <mxPoint x="403" y="420" />
              <mxPoint x="403" y="420" />
            </Array>
          </mxGeometry>
        </mxCell>
        <mxCell id="fPDpYAZ-1w6BcHP8GM9D-4" value="Dry-run deploy" style="ellipse;shape=cloud;whiteSpace=wrap;html=1;" parent="1" vertex="1">
          <mxGeometry x="340" y="320" width="120" height="80" as="geometry" />
        </mxCell>
        <mxCell id="fPDpYAZ-1w6BcHP8GM9D-6" value="&lt;font style=&quot;font-size: 13px&quot;&gt;&lt;font style=&quot;font-size: 13px&quot;&gt;Comment with URL in Pull Request&lt;/font&gt;&lt;br&gt;&lt;/font&gt;" style="text;html=1;strokeColor=none;fillColor=none;align=center;verticalAlign=middle;whiteSpace=wrap;rounded=0;" parent="1" vertex="1">
          <mxGeometry x="430" y="400" width="120" height="50" as="geometry" />
        </mxCell>
        <mxCell id="fPDpYAZ-1w6BcHP8GM9D-8" value="&lt;font style=&quot;font-size: 13px&quot;&gt;Add tag based on commit message context &lt;/font&gt;" style="text;html=1;strokeColor=none;fillColor=none;align=center;verticalAlign=middle;whiteSpace=wrap;rounded=0;" parent="1" vertex="1">
          <mxGeometry x="430" y="270" width="155" height="50" as="geometry" />
        </mxCell>
        <mxCell id="fPDpYAZ-1w6BcHP8GM9D-9" value="&lt;font style=&quot;font-size: 13px&quot;&gt;Commit message should include key-word #patch, #minor, #major, #none, otherwise version will be #patch&lt;br&gt;&lt;/font&gt;" style="text;html=1;strokeColor=none;fillColor=none;align=center;verticalAlign=middle;whiteSpace=wrap;rounded=0;" parent="1" vertex="1">
          <mxGeometry x="445" y="40" width="226.25" height="70" as="geometry" />
        </mxCell>
        <mxCell id="fPDpYAZ-1w6BcHP8GM9D-10" value="&lt;font style=&quot;font-size: 13px&quot;&gt;Trigger Integration workflow&lt;/font&gt;" style="text;html=1;strokeColor=none;fillColor=none;align=center;verticalAlign=middle;whiteSpace=wrap;rounded=0;" parent="1" vertex="1">
          <mxGeometry x="275" y="200" width="100" height="40" as="geometry" />
        </mxCell>
        <mxCell id="fPDpYAZ-1w6BcHP8GM9D-20" value="&lt;font style=&quot;font-size: 13px&quot;&gt;Trigger Deploy workflow&lt;/font&gt;" style="text;html=1;strokeColor=none;fillColor=none;align=center;verticalAlign=middle;whiteSpace=wrap;rounded=0;" parent="1" vertex="1">
          <mxGeometry x="290" y="790" width="70" height="50" as="geometry" />
        </mxCell>
        <mxCell id="QsKVNef-p0tS18L_qmss-13" value="" style="edgeStyle=orthogonalEdgeStyle;rounded=0;orthogonalLoop=1;jettySize=auto;html=1;" edge="1" parent="1" source="QsKVNef-p0tS18L_qmss-5" target="QsKVNef-p0tS18L_qmss-12">
          <mxGeometry relative="1" as="geometry" />
        </mxCell>
        <mxCell id="QsKVNef-p0tS18L_qmss-5" value="Deploy" style="rhombus;whiteSpace=wrap;html=1;" vertex="1" parent="1">
          <mxGeometry x="365" y="790" width="80" height="80" as="geometry" />
        </mxCell>
        <mxCell id="QsKVNef-p0tS18L_qmss-10" value="" style="edgeStyle=orthogonalEdgeStyle;rounded=0;orthogonalLoop=1;jettySize=auto;html=1;" edge="1" parent="1" source="QsKVNef-p0tS18L_qmss-6" target="fPDpYAZ-1w6BcHP8GM9D-4">
          <mxGeometry relative="1" as="geometry" />
        </mxCell>
        <mxCell id="QsKVNef-p0tS18L_qmss-6" value="Integration" style="rhombus;whiteSpace=wrap;html=1;" vertex="1" parent="1">
          <mxGeometry x="360" y="210" width="80" height="80" as="geometry" />
        </mxCell>
        <mxCell id="QsKVNef-p0tS18L_qmss-27" value="" style="edgeStyle=orthogonalEdgeStyle;rounded=0;orthogonalLoop=1;jettySize=auto;html=1;" edge="1" parent="1" source="QsKVNef-p0tS18L_qmss-12" target="QsKVNef-p0tS18L_qmss-23">
          <mxGeometry relative="1" as="geometry" />
        </mxCell>
        <mxCell id="QsKVNef-p0tS18L_qmss-12" value="Deploy to&lt;br&gt;Production" style="ellipse;shape=cloud;whiteSpace=wrap;html=1;" vertex="1" parent="1">
          <mxGeometry x="350" y="905" width="110" height="80" as="geometry" />
        </mxCell>
        <mxCell id="QsKVNef-p0tS18L_qmss-25" value="" style="edgeStyle=orthogonalEdgeStyle;rounded=0;orthogonalLoop=1;jettySize=auto;html=1;" edge="1" parent="1" source="QsKVNef-p0tS18L_qmss-14" target="QsKVNef-p0tS18L_qmss-20">
          <mxGeometry relative="1" as="geometry" />
        </mxCell>
        <mxCell id="QsKVNef-p0tS18L_qmss-14" value="" style="shape=umlActor;verticalLabelPosition=bottom;verticalAlign=top;html=1;outlineConnect=0;" vertex="1" parent="1">
          <mxGeometry x="387.5" y="460" width="35" height="60" as="geometry" />
        </mxCell>
        <mxCell id="QsKVNef-p0tS18L_qmss-22" value="" style="edgeStyle=orthogonalEdgeStyle;rounded=0;orthogonalLoop=1;jettySize=auto;html=1;" edge="1" parent="1" source="QsKVNef-p0tS18L_qmss-20" target="fPDpYAZ-1w6BcHP8GM9D-2">
          <mxGeometry relative="1" as="geometry" />
        </mxCell>
        <mxCell id="QsKVNef-p0tS18L_qmss-20" value="&lt;div align=&quot;center&quot;&gt;Merge&lt;/div&gt;" style="shape=process;whiteSpace=wrap;html=1;backgroundOutline=1;verticalAlign=top;align=center;" vertex="1" parent="1">
          <mxGeometry x="345" y="570" width="120" height="45" as="geometry" />
        </mxCell>
        <mxCell id="QsKVNef-p0tS18L_qmss-23" value="Remove old release versions ( &amp;lt;2 latest)" style="shape=hexagon;perimeter=hexagonPerimeter2;whiteSpace=wrap;html=1;fixedSize=1;" vertex="1" parent="1">
          <mxGeometry x="345" y="1010" width="120" height="80" as="geometry" />
        </mxCell>
      </root>
    </mxGraphModel>
  </diagram>
</mxfile>
